HIERARCHY
ROOT mixamorig:Hips
{
	OFFSET -0.000008 104.274872 1.554316
	CHANNELS 6 Xposition Yposition Zposition Xrotation Yrotation Zrotation
	JOINT mixamorig:Spine
	{
		OFFSET -0.000005 10.181595 0.131519
		CHANNELS 6 Xposition Yposition Zposition Xrotation Yrotation Zrotation
		JOINT mixamorig:Spine1
		{
			OFFSET -0.000000 9.893959 -1.470707
			CHANNELS 6 Xposition Yposition Zposition Xrotation Yrotation Zrotation
			JOINT mixamorig:Spine2
			{
				OFFSET -0.000000 9.220757 -1.370641
				CHANNELS 6 Xposition Yposition Zposition Xrotation Yrotation Zrotation
				JOINT mixamorig:Neck
				{
					OFFSET 0.000001 16.740417 -2.049036
					CHANNELS 6 Xposition Yposition Zposition Xrotation Yrotation Zrotation
					JOINT mixamorig:Head
					{
						OFFSET 0.000000 9.617874 1.685006
						CHANNELS 6 Xposition Yposition Zposition Xrotation Yrotation Zrotation
						JOINT mixamorig:HeadTop_End
						{
							OFFSET 0.000002 22.037354 7.501101
							CHANNELS 6 Xposition Yposition Zposition Xrotation Yrotation Zrotation
							End Site
							{
								OFFSET 0.000168 2310.654297 -282.823242
							}
						}
					}
				}
				JOINT mixamorig:RightShoulder
				{
					OFFSET -4.569970 11.014908 -2.160885
					CHANNELS 6 Xposition Yposition Zposition Xrotation Yrotation Zrotation
					JOINT mixamorig:RightArm
					{
						OFFSET -10.592851 -0.524811 -2.232101
						CHANNELS 6 Xposition Yposition Zposition Xrotation Yrotation Zrotation
						JOINT mixamorig:RightForeArm
						{
							OFFSET -27.841511 0.000031 -0.000004
							CHANNELS 6 Xposition Yposition Zposition Xrotation Yrotation Zrotation
							JOINT mixamorig:RightHand
							{
								OFFSET -28.328831 -0.000015 0.000015
								CHANNELS 6 Xposition Yposition Zposition Xrotation Yrotation Zrotation
								JOINT mixamorig:RightHandThumb1
								{
									OFFSET -2.464806 -1.573990 2.681852
									CHANNELS 6 Xposition Yposition Zposition Xrotation Yrotation Zrotation
									JOINT mixamorig:RightHandThumb2
									{
										OFFSET -3.215179 -1.872803 1.924282
										CHANNELS 6 Xposition Yposition Zposition Xrotation Yrotation Zrotation
										JOINT mixamorig:RightHandThumb3
										{
											OFFSET -2.654831 -1.527969 1.512609
											CHANNELS 6 Xposition Yposition Zposition Xrotation Yrotation Zrotation
											JOINT mixamorig:RightHandThumb4
											{
												OFFSET -2.018814 -1.152008 1.108052
												CHANNELS 6 Xposition Yposition Zposition Xrotation Yrotation Zrotation
												End Site
												{
													OFFSET -188.809540 -114.533607 132.431396
												}
											}
										}
									}
								}
								JOINT mixamorig:RightHandIndex1
								{
									OFFSET -9.108284 -0.517868 2.259835
									CHANNELS 6 Xposition Yposition Zposition Xrotation Yrotation Zrotation
									JOINT mixamorig:RightHandIndex2
									{
										OFFSET -3.699989 0.000000 0.001215
										CHANNELS 6 Xposition Yposition Zposition Xrotation Yrotation Zrotation
										JOINT mixamorig:RightHandIndex3
										{
											OFFSET -2.850006 0.000031 -0.000522
											CHANNELS 6 Xposition Yposition Zposition Xrotation Yrotation Zrotation
											JOINT mixamorig:RightHandIndex4
											{
												OFFSET -2.772186 -0.000015 -0.000020
												CHANNELS 6 Xposition Yposition Zposition Xrotation Yrotation Zrotation
												End Site
												{
													OFFSET -277.218445 0.000000 -0.050231
												}
											}
										}
									}
								}
								JOINT mixamorig:RightHandMiddle1
								{
									OFFSET -9.532516 -0.000031 -0.000023
									CHANNELS 6 Xposition Yposition Zposition Xrotation Yrotation Zrotation
									JOINT mixamorig:RightHandMiddle2
									{
										OFFSET -3.700005 -0.000015 0.003713
										CHANNELS 6 Xposition Yposition Zposition Xrotation Yrotation Zrotation
										JOINT mixamorig:RightHandMiddle3
										{
											OFFSET -2.949974 0.000015 -0.002054
											CHANNELS 6 Xposition Yposition Zposition Xrotation Yrotation Zrotation
											JOINT mixamorig:RightHandMiddle4
											{
												OFFSET -2.946640 0.000000 -0.000156
												CHANNELS 6 Xposition Yposition Zposition Xrotation Yrotation Zrotation
												End Site
												{
													OFFSET -294.664337 0.000000 -0.113670
												}
											}
										}
									}
								}
								JOINT mixamorig:RightHandRing1
								{
									OFFSET -9.103600 -0.043076 -1.865134
									CHANNELS 6 Xposition Yposition Zposition Xrotation Yrotation Zrotation
									JOINT mixamorig:RightHandRing2
									{
										OFFSET -3.379288 0.000000 -0.001055
										CHANNELS 6 Xposition Yposition Zposition Xrotation Yrotation Zrotation
										JOINT mixamorig:RightHandRing3
										{
											OFFSET -2.889687 -0.000015 0.000379
											CHANNELS 6 Xposition Yposition Zposition Xrotation Yrotation Zrotation
											JOINT mixamorig:RightHandRing4
											{
												OFFSET -2.638809 -0.000015 0.000941
												CHANNELS 6 Xposition Yposition Zposition Xrotation Yrotation Zrotation
												End Site
												{
													OFFSET -263.880371 0.000000 0.516020
												}
											}
										}
									}
								}
								JOINT mixamorig:RightHandPinky1
								{
									OFFSET -8.076683 -0.486710 -3.806280
									CHANNELS 6 Xposition Yposition Zposition Xrotation Yrotation Zrotation
									JOINT mixamorig:RightHandPinky2
									{
										OFFSET -3.600014 -0.000015 -0.003747
										CHANNELS 6 Xposition Yposition Zposition Xrotation Yrotation Zrotation
										JOINT mixamorig:RightHandPinky3
										{
											OFFSET -2.099983 0.000000 -0.005739
											CHANNELS 6 Xposition Yposition Zposition Xrotation Yrotation Zrotation
											JOINT mixamorig:RightHandPinky4
											{
												OFFSET -2.115768 -0.000031 -0.003680
												CHANNELS 6 Xposition Yposition Zposition Xrotation Yrotation Zrotation
												End Site
												{
													OFFSET -211.577087 0.000000 -0.350686
												}
											}
										}
									}
								}
							}
						}
					}
				}
				JOINT mixamorig:LeftShoulder
				{
					OFFSET 4.570447 11.014725 -2.160855
					CHANNELS 6 Xposition Yposition Zposition Xrotation Yrotation Zrotation
					JOINT mixamorig:LeftArm
					{
						OFFSET 10.592371 -0.524597 -2.232119
						CHANNELS 6 Xposition Yposition Zposition Xrotation Yrotation Zrotation
						JOINT mixamorig:LeftForeArm
						{
							OFFSET 27.841532 -0.000031 0.000026
							CHANNELS 6 Xposition Yposition Zposition Xrotation Yrotation Zrotation
							JOINT mixamorig:LeftHand
							{
								OFFSET 28.328846 -0.000061 0.000022
								CHANNELS 6 Xposition Yposition Zposition Xrotation Yrotation Zrotation
								JOINT mixamorig:LeftHandThumb1
								{
									OFFSET 2.466141 -1.576172 2.681732
									CHANNELS 6 Xposition Yposition Zposition Xrotation Yrotation Zrotation
									JOINT mixamorig:LeftHandThumb2
									{
										OFFSET 3.217812 -1.872070 1.916482
										CHANNELS 6 Xposition Yposition Zposition Xrotation Yrotation Zrotation
										JOINT mixamorig:LeftHandThumb3
										{
											OFFSET 2.656029 -1.528778 1.514513
											CHANNELS 6 Xposition Yposition Zposition Xrotation Yrotation Zrotation
											JOINT mixamorig:LeftHandThumb4
											{
												OFFSET 2.020889 -1.154053 1.115139
												CHANNELS 6 Xposition Yposition Zposition Xrotation Yrotation Zrotation
												End Site
												{
													OFFSET 190.885437 -115.081749 130.048782
												}
											}
										}
									}
								}
								JOINT mixamorig:LeftHandIndex1
								{
									OFFSET 9.109314 -0.518021 2.259871
									CHANNELS 6 Xposition Yposition Zposition Xrotation Yrotation Zrotation
									JOINT mixamorig:LeftHandIndex2
									{
										OFFSET 3.699989 0.000000 -0.000322
										CHANNELS 6 Xposition Yposition Zposition Xrotation Yrotation Zrotation
										JOINT mixamorig:LeftHandIndex3
										{
											OFFSET 2.850006 0.000000 0.000352
											CHANNELS 6 Xposition Yposition Zposition Xrotation Yrotation Zrotation
											JOINT mixamorig:LeftHandIndex4
											{
												OFFSET 2.774864 -0.000031 -0.000027
												CHANNELS 6 Xposition Yposition Zposition Xrotation Yrotation Zrotation
												End Site
												{
													OFFSET 277.486267 0.000000 -0.009857
												}
											}
										}
									}
								}
								JOINT mixamorig:LeftHandMiddle1
								{
									OFFSET 9.533394 0.000061 0.000044
									CHANNELS 6 Xposition Yposition Zposition Xrotation Yrotation Zrotation
									JOINT mixamorig:LeftHandMiddle2
									{
										OFFSET 3.699989 -0.000015 -0.000231
										CHANNELS 6 Xposition Yposition Zposition Xrotation Yrotation Zrotation
										JOINT mixamorig:LeftHandMiddle3
										{
											OFFSET 2.949997 -0.000015 -0.000059
											CHANNELS 6 Xposition Yposition Zposition Xrotation Yrotation Zrotation
											JOINT mixamorig:LeftHandMiddle4
											{
												OFFSET 2.952896 0.000031 0.000063
												CHANNELS 6 Xposition Yposition Zposition Xrotation Yrotation Zrotation
												End Site
												{
													OFFSET 295.289337 0.000000 0.022810
												}
											}
										}
									}
								}
								JOINT mixamorig:LeftHandRing1
								{
									OFFSET 9.104523 -0.042999 -1.865074
									CHANNELS 6 Xposition Yposition Zposition Xrotation Yrotation Zrotation
									JOINT mixamorig:LeftHandRing2
									{
										OFFSET 3.150009 -0.000031 0.000043
										CHANNELS 6 Xposition Yposition Zposition Xrotation Yrotation Zrotation
										JOINT mixamorig:LeftHandRing3
										{
											OFFSET 2.949982 -0.000015 0.000040
											CHANNELS 6 Xposition Yposition Zposition Xrotation Yrotation Zrotation
											JOINT mixamorig:LeftHandRing4
											{
												OFFSET 2.644348 0.000000 0.000057
												CHANNELS 6 Xposition Yposition Zposition Xrotation Yrotation Zrotation
												End Site
												{
													OFFSET 264.434631 0.000000 0.012105
												}
											}
										}
									}
								}
								JOINT mixamorig:LeftHandPinky1
								{
									OFFSET 8.077789 -0.486847 -3.806259
									CHANNELS 6 Xposition Yposition Zposition Xrotation Yrotation Zrotation
									JOINT mixamorig:LeftHandPinky2
									{
										OFFSET 3.599953 0.000031 0.014727
										CHANNELS 6 Xposition Yposition Zposition Xrotation Yrotation Zrotation
										JOINT mixamorig:LeftHandPinky3
										{
											OFFSET 2.100021 0.000015 0.007705
											CHANNELS 6 Xposition Yposition Zposition Xrotation Yrotation Zrotation
											JOINT mixamorig:LeftHandPinky4
											{
												OFFSET 2.125504 0.000031 0.007517
												CHANNELS 6 Xposition Yposition Zposition Xrotation Yrotation Zrotation
												End Site
												{
													OFFSET 212.550781 0.000000 0.625752
												}
											}
										}
									}
								}
							}
						}
					}
				}
			}
		}
	}
	JOINT mixamorig:RightUpLeg
	{
		OFFSET -8.207787 -6.751648 -1.599560
		CHANNELS 6 Xposition Yposition Zposition Xrotation Yrotation Zrotation
		JOINT mixamorig:RightLeg
		{
			OFFSET -0.000002 -44.370117 0.345942
			CHANNELS 6 Xposition Yposition Zposition Xrotation Yrotation Zrotation
			JOINT mixamorig:RightFoot
			{
				OFFSET 0.000003 -44.423679 -3.043532
				CHANNELS 6 Xposition Yposition Zposition Xrotation Yrotation Zrotation
				JOINT mixamorig:RightToeBase
				{
					OFFSET -0.000002 -8.728671 10.710558
					CHANNELS 6 Xposition Yposition Zposition Xrotation Yrotation Zrotation
					JOINT mixamorig:RightToe_End
					{
						OFFSET -0.000001 -0.000679 9.278119
						CHANNELS 6 Xposition Yposition Zposition Xrotation Yrotation Zrotation
						End Site
						{
							OFFSET 0.000000 -0.067690 927.812134
						}
					}
				}
			}
		}
	}
	JOINT mixamorig:LeftUpLeg
	{
		OFFSET 8.207793 -6.751686 -1.599556
		CHANNELS 6 Xposition Yposition Zposition Xrotation Yrotation Zrotation
		JOINT mixamorig:LeftLeg
		{
			OFFSET -0.000004 -44.370014 0.346954
			CHANNELS 6 Xposition Yposition Zposition Xrotation Yrotation Zrotation
			JOINT mixamorig:LeftFoot
			{
				OFFSET -0.000001 -44.423672 -3.044401
				CHANNELS 6 Xposition Yposition Zposition Xrotation Yrotation Zrotation
				JOINT mixamorig:LeftToeBase
				{
					OFFSET -0.000002 -8.728669 10.710558
					CHANNELS 6 Xposition Yposition Zposition Xrotation Yrotation Zrotation
					JOINT mixamorig:LeftToe_End
					{
						OFFSET -0.000003 -0.000679 9.278133
						CHANNELS 6 Xposition Yposition Zposition Xrotation Yrotation Zrotation
						End Site
						{
							OFFSET 0.000000 -0.068021 927.813477
						}
					}
				}
			}
		}
	}
}
MOTION
Frames: 3
Frame Time: 0.033333
0.000006 104.270477 1.554256 0.000010 0.000003 -0.000113 -0.000005 10.181587 0.131522 0.000001 -0.000003 0.000084 -0.000000 9.893967 -1.470711 0.000001 0.000000 -0.000000 -0.000000 9.220802 -1.370642 0.000000 -0.000000 -0.000000 0.000001 16.740433 -2.049030 0.000000 -0.000000 -0.000000 0.000000 9.617859 1.685014 0.000000 0.000000 0.000000 0.000002 22.037384 7.501101 0.000000 -0.000000 0.000000 -4.569968 11.014880 -2.160881 0.000008 0.000001 -0.000038 -10.592868 -0.524784 -2.231890 76.009309 33.904250 -26.795203 -27.841526 -0.000005 0.000561 -50.768694 107.074690 65.411021 -28.328831 0.000021 0.000032 -0.000318 -0.000046 0.000008 -2.464422 -1.573888 2.682372 -36.021625 -155.882798 15.809549 -3.215255 -1.872547 1.924639 151.569643 33.611989 20.665787 -2.654950 -1.527866 1.513055 148.262698 27.310199 -31.036349 -2.018823 -1.152003 1.108063 -0.000001 -0.000006 0.000001 -9.108393 -0.517564 2.260151 104.963192 17.802605 -23.118592 -3.700060 0.000302 0.001533 99.384334 12.139236 -14.262076 -2.850070 0.000382 -0.000237 101.014898 8.630044 -10.461436 -2.772161 -0.000016 -0.000020 -0.000001 -0.000000 -0.000001 -9.532608 0.000246 0.000288 103.661399 18.579750 -23.694276 -3.700068 0.000332 0.004009 102.705718 10.540402 -13.044450 -2.950055 0.000354 -0.001761 105.708584 8.950365 -11.788048 -2.946629 -0.000011 -0.000161 -0.000001 0.000001 0.000002 -9.103703 -0.042774 -1.864820 103.455919 20.136673 -25.308957 -3.379335 0.000331 -0.000767 102.968742 8.600958 -10.816641 -2.889754 0.000350 0.000682 108.003643 4.849013 -6.731980 -2.638795 0.000001 0.000942 0.000000 0.000003 0.000000 -8.076761 -0.486423 -3.805986 92.350004 22.065329 -22.802458 -3.600042 0.000272 -0.003475 94.897323 11.000682 -11.578077 -2.100032 0.000314 -0.005471 98.409277 5.808970 -6.474149 -2.115771 -0.000028 -0.003678 -0.000003 0.000001 -0.000002 4.570446 11.014691 -2.160851 -0.000018 0.000010 -0.000021 10.592411 -0.524473 -2.232357 73.022563 -17.061466 12.672378 27.841810 0.000072 -0.000204 97.021580 -72.735531 79.565714 28.328833 -0.000029 0.000026 0.000021 -0.000086 -0.000000 2.466202 -1.576115 2.681868 -0.433875 158.219338 -79.872956 3.217847 -1.871776 1.916395 162.477619 -27.714580 17.908435 2.656096 -1.528652 1.514457 141.517927 -27.164434 50.371105 2.020887 -1.154053 1.115145 0.000002 0.000004 0.000004 9.109375 -0.517881 2.259743 81.253713 -20.676123 17.777968 3.700051 0.000115 -0.000444 75.852604 -21.964264 17.211976 2.850082 0.000146 0.000221 72.660051 -16.820659 12.409424 2.774879 -0.000031 -0.000024 0.000001 -0.000002 0.000000 9.533454 0.000194 -0.000092 78.913233 -19.037696 15.708177 3.700054 0.000163 -0.000364 81.663736 -17.773452 15.387574 2.950054 0.000131 -0.000186 79.707276 -19.812444 16.591158 2.952870 -0.000016 0.000066 -0.000000 0.000001 0.000001 9.104582 -0.042874 -1.865194 78.647948 -17.605921 14.461548 3.150056 0.000175 -0.000108 81.443613 -13.672335 11.785181 2.950024 0.000151 -0.000069 82.878588 -14.295258 12.636432 2.644311 0.000014 0.000057 -0.000001 -0.000001 -0.000000 8.077843 -0.486751 -3.806392 69.981790 -18.415590 13.376246 3.599999 0.000147 0.014579 70.747031 -14.836387 10.937056 2.100043 0.000152 0.007552 73.290997 -13.787443 10.649318 2.125509 -0.000014 0.007517 0.000001 -0.000001 0.000001 -8.207786 -6.751667 -1.599560 -0.077001 -0.000003 0.000080 -0.000002 -44.370110 0.345938 0.153719 -0.000000 -0.000000 0.000000 -44.423679 -3.043532 -0.076700 0.000000 -0.000002 -0.000006 -8.728667 10.710559 -0.000009 -0.000000 -0.000000 -0.000001 -0.000679 9.278123 0.000000 -0.000000 -0.000000 8.207792 -6.751710 -1.599556 -0.074518 -0.000003 0.000081 -0.000002 -44.370014 0.346960 0.148822 0.000002 0.000000 -0.000001 -44.423664 -3.044403 -0.074314 0.000000 -0.000002 -0.000004 -8.728671 10.710558 0.000007 -0.000000 -0.000000 0.000000 -0.000680 9.278137 -0.000000 0.000000 -0.000001 
0.000006 104.270477 1.554256 0.000010 0.000003 -0.000113 -0.000005 10.181587 0.131522 0.000001 -0.000003 0.000084 -0.000000 9.893967 -1.470711 0.000001 0.000000 -0.000000 -0.000000 9.220802 -1.370642 0.000000 -0.000000 -0.000000 0.000001 16.740433 -2.049030 0.000000 -0.000000 -0.000000 0.000000 9.617859 1.685014 0.000000 0.000000 0.000000 0.000002 22.037384 7.501101 0.000000 -0.000000 0.000000 -4.569968 11.014880 -2.160881 0.000008 0.000001 -0.000038 -10.592861 -0.524795 -2.231844 75.386458 39.827656 -31.276447 -27.841524 -0.000003 0.000574 -48.544934 105.262812 61.121450 -28.328823 0.000009 0.000031 -0.000321 -0.000045 0.000008 -2.464388 -1.573869 2.682346 -38.285819 -153.563621 10.024011 -3.215217 -1.872478 1.924612 144.968525 33.897932 40.665160 -2.654962 -1.527858 1.513067 147.900274 27.469073 -29.990739 -2.018831 -1.151995 1.108052 -0.000002 0.000001 0.000004 -9.108396 -0.517556 2.260150 103.887007 16.225114 -20.697811 -3.700068 0.000334 0.001512 100.530822 12.689174 -15.209634 -2.850086 0.000382 -0.000241 100.142956 9.967926 -11.895565 -2.772148 0.000001 -0.000020 0.000000 -0.000003 -0.000000 -9.532598 0.000261 0.000292 102.913561 15.627813 -19.724289 -3.700056 0.000333 0.004016 103.722699 9.921820 -12.499187 -2.950047 0.000345 -0.001761 103.761522 10.056753 -12.787649 -2.946616 0.000002 -0.000152 -0.000000 0.000001 -0.000000 -9.103701 -0.042766 -1.864818 103.216152 18.005164 -22.557731 -3.379312 0.000324 -0.000775 105.513213 7.382839 -9.723649 -2.889752 0.000360 0.000705 108.781049 5.481668 -7.710969 -2.638828 0.000000 0.000937 0.000002 -0.000003 -0.000002 -8.076763 -0.486403 -3.805998 91.762184 21.714939 -22.215484 -3.600049 0.000282 -0.003487 95.920233 8.637448 -9.180923 -2.100002 0.000319 -0.005460 96.790904 4.365821 -4.673455 -2.115787 -0.000039 -0.003682 0.000002 -0.000004 0.000001 4.570446 11.014691 -2.160851 -0.000018 0.000010 -0.000021 10.592414 -0.524467 -2.232376 72.961939 -19.227724 14.278590 27.841808 0.000046 -0.000205 97.674014 -74.800345 82.338982 28.328815 -0.000027 0.000015 0.000024 -0.000089 0.000000 2.466263 -1.576010 2.681819 11.448741 171.609118 -108.767204 3.217860 -1.871794 1.916396 169.687253 -24.641466 27.175152 2.656096 -1.528683 1.514496 144.847002 -25.289105 59.801011 2.020899 -1.154067 1.115145 -0.000001 0.000004 0.000002 9.109387 -0.517882 2.259742 83.319360 -22.726507 20.263243 3.700042 0.000137 -0.000466 81.244110 -14.440690 12.418950 2.850058 0.000188 0.000194 80.043260 -10.835063 9.105588 2.774885 -0.000031 -0.000022 -0.000000 -0.000000 0.000001 9.533476 0.000194 -0.000075 82.201238 -20.174335 17.634860 3.700048 0.000171 -0.000372 85.016246 -10.604405 9.721939 2.950058 0.000159 -0.000209 84.779976 -10.989916 10.039418 2.952850 -0.000032 0.000063 -0.000001 0.000001 0.000000 9.104588 -0.042870 -1.865209 81.444228 -19.478415 16.810685 3.150054 0.000174 -0.000099 86.399899 -11.302498 10.619489 2.950022 0.000189 -0.000080 86.702257 -9.801954 9.257495 2.644325 0.000030 0.000061 -0.000002 -0.000001 0.000000 8.077836 -0.486743 -3.806410 73.508470 -20.313937 15.705344 3.599993 0.000154 0.014573 74.879712 -15.967469 12.664942 2.100046 0.000174 0.007535 77.630994 -12.301040 10.301103 2.125508 -0.000000 0.007512 0.000001 -0.000000 -0.000002 -8.207786 -6.751667 -1.599560 -0.077001 -0.000003 0.000080 -0.000002 -44.370110 0.345938 0.153719 -0.000000 -0.000000 0.000000 -44.423679 -3.043532 -0.076700 0.000000 -0.000002 -0.000006 -8.728667 10.710559 -0.000009 -0.000000 -0.000000 -0.000001 -0.000679 9.278123 0.000000 -0.000000 -0.000000 8.207792 -6.751710 -1.599556 -0.074518 -0.000003 0.000081 -0.000002 -44.370014 0.346960 0.148822 0.000002 0.000000 -0.000001 -44.423664 -3.044403 -0.074314 0.000000 -0.000002 -0.000004 -8.728671 10.710558 0.000007 -0.000000 -0.000000 0.000000 -0.000680 9.278137 -0.000000 0.000000 -0.000001 
0.000006 104.270477 1.554256 0.000010 0.000003 -0.000113 -0.000005 10.181587 0.131522 0.000001 -0.000003 0.000084 -0.000000 9.893967 -1.470711 0.000001 0.000000 -0.000000 -0.000000 9.220802 -1.370642 0.000000 -0.000000 -0.000000 0.000001 16.740433 -2.049030 0.000000 -0.000000 -0.000000 0.000000 9.617859 1.685014 0.000000 0.000000 0.000000 0.000002 22.037384 7.501101 0.000000 -0.000000 0.000000 -4.569968 11.014880 -2.160881 0.000008 0.000001 -0.000038 -10.592852 -0.524806 -2.231833 75.062392 43.540571 -34.111314 -27.841515 0.000008 0.000550 -47.998212 103.955862 59.313513 -28.328829 0.000022 0.000031 -0.000317 -0.000046 0.000007 -2.464391 -1.573880 2.682357 -38.329717 -154.101266 10.135424 -3.215228 -1.872499 1.924607 146.285768 34.146455 38.016666 -2.654971 -1.527878 1.513074 148.429723 27.254816 -31.326547 -2.018826 -1.152016 1.108054 -0.000007 -0.000001 0.000002 -9.108361 -0.517555 2.260141 103.761283 16.841291 -21.427697 -3.700062 0.000319 0.001523 99.804124 13.393151 -15.848597 -2.850092 0.000370 -0.000239 99.112656 10.639866 -12.467987 -2.772156 -0.000015 -0.000020 -0.000000 -0.000002 0.000000 -9.532575 0.000273 0.000285 102.582727 16.298933 -20.439647 -3.700065 0.000334 0.004012 103.645539 10.564507 -13.294518 -2.950062 0.000337 -0.001764 103.869262 10.677338 -13.600563 -2.946609 -0.000000 -0.000154 0.000000 0.000000 -0.000000 -9.103685 -0.042780 -1.864820 103.019668 18.563402 -23.172132 -3.379318 0.000312 -0.000773 105.650807 8.079187 -10.663182 -2.889754 0.000365 0.000685 109.298019 6.099545 -8.654105 -2.638825 -0.000017 0.000947 0.000000 0.000001 0.000000 -8.076750 -0.486406 -3.805998 91.355850 22.516750 -22.880937 -3.600032 0.000275 -0.003499 95.313903 9.806634 -10.359854 -2.100012 0.000329 -0.005467 97.489790 5.282817 -5.772773 -2.115773 -0.000046 -0.003680 -0.000002 -0.000000 -0.000001 4.570446 11.014691 -2.160851 -0.000018 0.000010 -0.000021 10.592424 -0.524477 -2.232388 71.761874 -22.692786 16.518092 27.841824 0.000029 -0.000199 97.609612 -76.139807 83.647886 28.328827 -0.000028 0.000028 0.000022 -0.000088 -0.000001 2.466269 -1.575997 2.681825 16.308591 173.433680 -115.367400 3.217857 -1.871837 1.916420 167.449683 -21.938487 37.451263 2.656088 -1.528638 1.514464 146.783511 -25.356007 51.972269 2.020899 -1.154068 1.115148 0.000006 0.000005 0.000002 9.109398 -0.517859 2.259752 87.575907 -21.582602 20.695535 3.700050 0.000172 -0.000468 85.587680 -13.948972 12.939055 2.850061 0.000193 0.000208 85.503156 -10.794042 9.981566 2.774878 -0.000030 -0.000025 -0.000000 -0.000000 0.000000 9.533476 0.000200 -0.000097 85.266572 -19.254399 17.742899 3.700047 0.000181 -0.000377 89.351415 -11.192009 11.064203 2.950058 0.000184 -0.000200 90.072430 -10.523109 10.539225 2.952874 -0.000015 0.000061 0.000005 0.000001 -0.000001 9.104599 -0.042857 -1.865217 85.180648 -18.808632 17.315412 3.150038 0.000194 -0.000095 90.098999 -13.225991 13.250500 2.950017 0.000184 -0.000090 89.665392 -10.287876 10.230006 2.644318 0.000030 0.000057 0.000002 -0.000001 0.000000 8.077866 -0.486728 -3.806398 77.733092 -20.044848 16.707514 3.600013 0.000166 0.014578 78.585329 -17.138058 14.495818 2.100054 0.000177 0.007548 80.768319 -12.740313 11.264554 2.125501 -0.000015 0.007517 0.000001 -0.000000 0.000001 -8.207786 -6.751667 -1.599560 -0.077001 -0.000003 0.000080 -0.000002 -44.370110 0.345938 0.153719 -0.000000 -0.000000 0.000000 -44.423679 -3.043532 -0.076700 0.000000 -0.000002 -0.000006 -8.728667 10.710559 -0.000009 -0.000000 -0.000000 -0.000001 -0.000679 9.278123 0.000000 -0.000000 -0.000000 8.207792 -6.751710 -1.599556 -0.074518 -0.000003 0.000081 -0.000002 -44.370014 0.346960 0.148822 0.000002 0.000000 -0.000001 -44.423664 -3.044403 -0.074314 0.000000 -0.000002 -0.000004 -8.728671 10.710558 0.000007 -0.000000 -0.000000 0.000000 -0.000680 9.278137 -0.000000 0.000000 -0.000001 
